<svg xmlns="http://www.w3.org/2000/svg" viewBox="0 0 512 512" width="512" height="512"><path d="M455.649 0H56.351C33.996 0 15.809 18.187 15.809 40.542v430.916c0 22.355 18.187 40.542 40.542 40.542H455.65c22.355 0 40.542-18.187 40.542-40.542V40.542C496.191 18.187 478.004 0 455.649 0zm20.144 471.458c0 11.108-9.035 20.143-20.143 20.143H56.351c-11.108 0-20.143-9.036-20.143-20.143V40.542c0-11.108 9.036-20.143 20.143-20.143H455.65c11.108 0 20.143 9.036 20.143 20.143v430.916z" fill="#FFF"/><path d="M441.625 43.857H70.375c-5.632 0-10.199 4.567-10.199 10.199v75.474c0 5.632 4.567 10.199 10.199 10.199h371.251c5.632 0 10.199-4.567 10.199-10.199V54.056c0-5.632-4.567-10.199-10.2-10.199zm-10.199 75.474H80.574V64.255h350.853v55.076zM136.521 175.431H70.375c-5.632 0-10.199 4.567-10.199 10.199v36.32c0 5.632 4.567 10.199 10.199 10.199h66.147c5.633 0 10.199-4.566 10.199-10.199v-36.32c0-5.631-4.568-10.199-10.2-10.199zm-10.199 36.321H80.574V195.83h45.748v15.922zM238.223 175.431h-66.147c-5.632 0-10.199 4.567-10.199 10.199v36.32c0 5.632 4.567 10.199 10.199 10.199h66.147c5.633 0 10.199-4.566 10.199-10.199v-36.32c0-5.631-4.567-10.199-10.199-10.199zm-10.199 36.321h-45.748V195.83h45.748v15.922zM339.924 175.431h-66.147c-5.632 0-10.199 4.567-10.199 10.199v36.32c0 5.632 4.567 10.199 10.199 10.199h66.147c5.633 0 10.199-4.566 10.199-10.199v-36.32c0-5.631-4.567-10.199-10.199-10.199zm-10.199 36.321h-45.749V195.83h45.749v15.922zM441.625 175.431h-66.147c-5.632 0-10.199 4.567-10.199 10.199v36.32c0 5.632 4.567 10.199 10.199 10.199h66.147c5.632 0 10.199-4.566 10.199-10.199v-36.32c.001-5.631-4.566-10.199-10.199-10.199zm-10.199 36.321h-45.749V195.83h45.749v15.922zM136.521 250.506H70.375c-5.632 0-10.199 4.567-10.199 10.199v36.32c0 5.632 4.567 10.199 10.199 10.199h66.147c5.633 0 10.199-4.567 10.199-10.199v-36.32c0-5.632-4.568-10.199-10.2-10.199zm-10.199 36.32H80.574v-15.922h45.748v15.922zM238.223 250.506h-66.147c-5.632 0-10.199 4.567-10.199 10.199v36.32c0 5.632 4.567 10.199 10.199 10.199h66.147c5.633 0 10.199-4.567 10.199-10.199v-36.32c0-5.632-4.567-10.199-10.199-10.199zm-10.199 36.32h-45.748v-15.922h45.748v15.922zM339.924 250.506h-66.147c-5.632 0-10.199 4.567-10.199 10.199v36.32c0 5.632 4.567 10.199 10.199 10.199h66.147c5.633 0 10.199-4.567 10.199-10.199v-36.32c0-5.632-4.567-10.199-10.199-10.199zm-10.199 36.32h-45.749v-15.922h45.749v15.922zM441.625 250.506h-66.147c-5.632 0-10.199 4.567-10.199 10.199v36.32c0 5.632 4.567 10.199 10.199 10.199h66.147c5.632 0 10.199-4.567 10.199-10.199v-36.32c.001-5.632-4.566-10.199-10.199-10.199zm-10.199 36.32h-45.749v-15.922h45.749v15.922zM136.521 326.786H70.375c-5.632 0-10.199 4.567-10.199 10.199v36.32c0 5.632 4.567 10.199 10.199 10.199h66.147c5.633 0 10.199-4.567 10.199-10.199v-36.32c0-5.632-4.568-10.199-10.2-10.199zm-10.199 36.32H80.574v-15.922h45.748v15.922zM238.223 326.786h-66.147c-5.632 0-10.199 4.567-10.199 10.199v36.32c0 5.632 4.567 10.199 10.199 10.199h66.147c5.633 0 10.199-4.567 10.199-10.199v-36.32c0-5.632-4.567-10.199-10.199-10.199zm-10.199 36.32h-45.748v-15.922h45.748v15.922zM339.924 326.786h-66.147c-5.632 0-10.199 4.567-10.199 10.199v36.32c0 5.632 4.567 10.199 10.199 10.199h66.147c5.633 0 10.199-4.567 10.199-10.199v-36.32c0-5.632-4.567-10.199-10.199-10.199zm-10.199 36.32h-45.749v-15.922h45.749v15.922zM136.521 404.276H70.375c-5.632 0-10.199 4.567-10.199 10.199v36.32c0 5.632 4.567 10.199 10.199 10.199h66.147c5.633 0 10.199-4.566 10.199-10.199v-36.32c0-5.632-4.568-10.199-10.2-10.199zm-10.199 36.32H80.574v-15.922h45.748v15.922zM238.223 404.276h-66.147c-5.632 0-10.199 4.567-10.199 10.199v36.32c0 5.632 4.567 10.199 10.199 10.199h66.147c5.633 0 10.199-4.566 10.199-10.199v-36.32c0-5.632-4.567-10.199-10.199-10.199zm-10.199 36.32h-45.748v-15.922h45.748v15.922zM339.924 404.276h-66.147c-5.632 0-10.199 4.567-10.199 10.199v36.32c0 5.632 4.567 10.199 10.199 10.199h66.147c5.633 0 10.199-4.566 10.199-10.199v-36.32c0-5.632-4.567-10.199-10.199-10.199zm-10.199 36.32h-45.749v-15.922h45.749v15.922zM441.625 326.375h-66.147c-5.632 0-10.199 4.567-10.199 10.199v114.222c0 5.632 4.567 10.199 10.199 10.199h66.147c5.632 0 10.199-4.566 10.199-10.199V336.574c.001-5.632-4.566-10.199-10.199-10.199zm-10.199 114.221h-45.749v-93.824h45.749v93.824z" fill="#FFF"/><path d="M404.908 81.594h-120.35c-5.632 0-10.199 4.567-10.199 10.199s4.567 10.199 10.199 10.199h120.351c5.632 0 10.199-4.567 10.199-10.199s-4.568-10.199-10.2-10.199zM251.92 81.594h-9.179c-5.632 0-10.199 4.567-10.199 10.199s4.567 10.199 10.199 10.199h9.179c5.632 0 10.199-4.567 10.199-10.199.001-5.632-4.567-10.199-10.199-10.199z" fill="#FFF"/></svg>