<?xml version="1.0" encoding="utf-8"?>
<!-- Generator: Adobe Illustrator 19.0.0, SVG Export Plug-In . SVG Version: 6.00 Build 0)  -->
<svg version="1.1" id="LOGO" xmlns="http://www.w3.org/2000/svg" xmlns:xlink="http://www.w3.org/1999/xlink" x="0px" y="0px"
	 viewBox="0 0 340.8 210" style="enable-background:new 0 0 340.8 210;" xml:space="preserve">
<style type="text/css">
	.st0{fill:none;stroke:#FFFFFF;stroke-miterlimit:10;}
	.st1{fill:#FFFFFF;}
</style>
<path id="XMLID_640_" class="st0" d="M113.8,81.5"/>
<text id="XMLID_647_" transform="matrix(1 0 0 1 260.6665 341.333)" class="st1" style="font-family:'Impact'; font-size:12px;">   </text>
<g id="XMLID_1_">
	<path id="XMLID_44_" class="st1" d="M175.4,138.3c1.7,0.4,3.5,0.7,5.3,1c1.8,0.2,3.2,0.3,4,0.3l5.3-21.6l6,1.5l5.7,17.5
		c0.4,1.3,0.8,2.5,1.4,3.7c0.5,1.2,1.1,2.2,1.9,3.1c0.7,0.9,1.7,1.7,2.8,2.4c1.1,0.7,2.5,1.2,4.1,1.6c2.5,0.6,4.9,0.5,7.2-0.4
		c2.3-0.9,4.2-2.6,5.6-5c-0.9-3-2.2-6.4-4-10.3c-1.8-3.9-3.6-8-5.4-12.3c3.7-1,7.2-2.8,10.4-5.5c1-0.9,1.9-1.8,2.8-2.9
		c0.6,0.7,1.2,1.4,1.8,2c2.8,3.2,5.6,6.3,8.5,9.3c2.8,3,5.5,5.7,7.9,8.2l2.9,15.4c0.7,3.8,2.1,6.1,4,7c2,0.9,4.7,0.9,8.2,0.3
		c1.7-0.3,3.4-0.7,5.1-1.3c1.7-0.6,3-1,3.7-1.4l-4.3-23.1c3.1-8.1,5.6-14.6,7.4-19.5c1.8-5,3.1-8.9,4-11.8c0.9-2.9,1.4-5,1.5-6.4
		c0.1-1.4,0.1-2.5-0.1-3.4c-0.5-2.8-1.9-4.7-4-5.8c-2.1-1.1-4.5-1.3-7.2-0.8c-1.5,0.3-3.1,0.8-4.7,1.5c-1.6,0.7-3,1.5-4.3,2.4
		c-0.6,2.9-1,5.5-1.5,7.8c-0.4,2.2-0.9,4.4-1.3,6.5c-0.4,2.1-0.8,4.2-1.2,6.2c-0.4,2.1-1,4.4-1.6,7l-0.7,0.1l-13-17.3
		c-2.3-3-4.5-5-6.6-5.8c-0.6-0.2-1.2-0.4-1.8-0.5c-0.7-1.4-1.5-2.8-2.5-4.2c-4.2-5.6-11.4-9.8-21.8-12.3c-3.8-0.9-7.5-1.6-11-2.1
		c-3.5-0.4-6.6-0.5-9.4-0.2c-1.6,0.2-3,0.6-4.1,1.2c-1.1,0.7-1.8,1.8-2.2,3.3L174,99.1c-2.4-2.2-4.8-4.6-7.3-7.1
		c3.1-2.3,5.6-5.4,7.5-9.1c1.9-3.7,2.5-8,1.8-12.7c-1.1-7.6-4.7-13.2-10.7-16.8c-6-3.6-14.3-4.6-24.8-3.1c-3.9,0.6-7.5,1.4-10.9,2.3
		c-3.4,0.9-6.3,2.1-8.8,3.4c-1.4,0.8-2.5,1.7-3.3,2.7c-0.7,1-1,2.3-0.8,3.9l2.2,14.8c-1.8-1.1-3.9-2.1-6.2-2.9
		c-2.6-0.9-5.2-1.4-8-1.6c-2.7-0.2-4.9-0.2-6.4,0.1c-1,1.1-2.3,2.8-4.1,5c-1.8,2.2-3.8,4.7-5.9,7.5c-2.2,2.8-4.5,5.8-7,8.9
		c-1,1.2-1.9,2.4-2.8,3.6L67.1,82.2l37-26.9c1.6-1.2,2.8-2.3,3.5-3.4c0.7-1.1,1.1-2.2,1.1-3.4c0-1.2-0.3-2.4-0.8-3.6
		c-0.6-1.3-1.4-2.6-2.4-4c-1-1.4-2.2-2.7-3.5-4.1c-1.3-1.3-2.3-2.3-2.9-2.9L50.7,69.1c-2.7,2-4.2,4.3-4.7,7
		c-0.4,2.7,0.3,5.4,2.3,8.1l18.3,25.1c0.6,0.8,1.3,1.5,2,2c-0.2,0.3-0.4,0.6-0.6,0.8c-1.9,2.6-3.5,4.8-4.7,6.6
		c-0.8,1.3-1.6,2.4-2.2,3.3c-0.6,0.9-1.1,1.9-1.5,2.9c-0.8,2.3-0.5,4.3,0.8,6.2c1.3,1.9,3.9,3.5,7.6,4.8c1.6,0.6,3,0.9,4.2,1
		c1.2,0.1,2.4,0.2,3.6,0.2c1.3-2,2.7-4.1,4.1-6.2c1.4-2.1,2.8-4.2,4.1-6.2l19.8,6.8l-0.6,8.2c-0.1,1.4,0,2.6,0.1,3.7
		c0.1,1.1,0.5,2.1,1.1,2.9c0.6,0.9,1.4,1.6,2.5,2.3c1.1,0.7,2.5,1.4,4.3,2c2.4,0.8,4.6,1.2,6.6,1.2c2,0,3.6-0.4,4.8-1.1
		c0.3-4.4,0.6-9.5,0.9-15.2c0.3-5.7,0.7-11.5,1-17.4c0.1-1,0.1-2.1,0.2-3.1l0.2,1.5c0.3,2,0.8,3.6,1.4,4.7c0.6,1.2,1.5,2,2.4,2.6
		c1,0.6,2.2,0.9,3.5,0.9c1.4,0.1,2.9,0,4.7-0.3c1.8-0.3,3.5-0.6,5.3-1.1c1.8-0.5,3-0.9,3.9-1.3l-3.3-22l6.1-0.9l12,14
		c0.9,1,1.7,2,2.7,2.9c0.9,0.9,1.9,1.6,2.9,2.1c0.8,0.4,1.6,0.7,2.6,1l-1.8,7.2c-0.5,2-0.6,3.6-0.5,4.9c0.2,1.3,0.6,2.4,1.3,3.3
		c0.7,0.9,1.7,1.6,2.9,2.2C172.2,137.4,173.7,137.9,175.4,138.3z M197.9,86.1c0.9,0.1,1.6,0.1,2.3,0.2c0.7,0.1,1.6,0.3,2.7,0.6
		c4,1,6.7,2.4,8.2,4.4c1.5,1.9,1.9,4.3,1.2,7.2c-0.7,2.9-2.1,4.8-4.1,5.9c-2,1.1-4.4,1.2-7.3,0.5l-7.2-1.8L197.9,86.1z M106.8,103.1
		c-0.2,4.1-0.5,8.3-0.9,12.6L92.4,111c2.4-3.5,4.8-6.9,7.4-10.3c2.6-3.3,4.9-6.3,7-9.1l0.7,0.2C107.3,95.3,107.1,99,106.8,103.1z
		 M157.8,80.5c-1.5,1.7-3.6,2.8-6.5,3.3l-7.3,1.1l-2.6-17.2c0.8-0.3,1.6-0.5,2.2-0.7c0.7-0.2,1.6-0.4,2.7-0.5c4-0.6,7.1-0.3,9.2,0.9
		c2.1,1.2,3.4,3.3,3.8,6.2C159.8,76.4,159.3,78.8,157.8,80.5z"/>
	<g id="XMLID_3_">
		<path id="XMLID_4_" class="st1" d="M31.7,43L31.7,43c-1.6,0.4-2.6,2-2.2,3.6l15,60.2c0.4,1.6,2,2.6,3.6,2.2h0
			c1.6-0.4,2.6-2,2.2-3.6l-15-60.2C34.9,43.6,33.3,42.6,31.7,43z"/>
		<path id="XMLID_5_" class="st1" d="M29.5,46.7L29.5,46.7c0.4,1.6,2.1,2.6,3.7,2.2l60.2-15c1.6-0.4,2.6-2.1,2.2-3.7l0,0
			c-0.4-1.6-2.1-2.6-3.7-2.2L31.7,43C30.1,43.4,29.1,45,29.5,46.7z"/>
	</g>
	<g id="XMLID_7_">
		<path id="XMLID_10_" class="st1" d="M305.7,148L305.7,148c1.6-0.5,2.4-2.2,1.9-3.8l-20-58.8c-0.5-1.6-2.2-2.4-3.8-1.9l0,0
			c-1.6,0.5-2.4,2.2-1.9,3.8l20,58.8C302.5,147.6,304.2,148.5,305.7,148z"/>
		<path id="XMLID_8_" class="st1" d="M307.6,144.1L307.6,144.1c-0.5-1.6-2.3-2.4-3.9-1.9l-58.7,20c-1.6,0.5-2.4,2.3-1.9,3.9l0,0
			c0.5,1.6,2.3,2.4,3.9,1.9l58.7-20C307.3,147.4,308.1,145.7,307.6,144.1z"/>
	</g>
	<path id="XMLID_51_" class="st1" d="M325.8,192H15h-1H0c0,16,12.7,17.7,13.9,17.9c0.1,0,0.1,0.1,0.2,0.1h312.8c0,0,13.9,0,14-18
		H325.8z M168,203c-12,0-23.1,0-35.2,0c-1.3,0-3.8-1.7-3.8-2.9v-3.8c14,0,26,0,39,0C168,198.5,168,200,168,203z M209,199.7
		c0,1-1.9,3.3-3.1,3.3c-11.7,0-23.9,0-35.9,0c0-3,0-4.8,0-6.7c13,0,26,0,39,0V199.7z"/>
	<path id="XMLID_55_" class="st1" d="M169.2,187H325V15.3C325,6.5,318.3,0,309.5,0H169.2h0H28.9C20.1,0,12,6.5,12,15.3V187H169.2z
		 M169.1,4.5c1.4,0,2.5,1.1,2.5,2.5s-1.1,2.5-2.5,2.5s-2.5-1.1-2.5-2.5S167.7,4.5,169.1,4.5z M316,175.5c0,1.9-1.6,3.5-3.5,3.5h-288
		c-1.9,0-3.5-1.6-3.5-3.5v-158c0-1.9,1.6-3.5,3.5-3.5h288c1.9,0,3.5,1.6,3.5,3.5V175.5z"/>
</g>
</svg>
