<?xml version="1.0" encoding="utf-8"?>
<!-- Generator: Adobe Illustrator 19.0.0, SVG Export Plug-In . SVG Version: 6.00 Build 0)  -->
<svg version="1.1" id="PHONE" xmlns="http://www.w3.org/2000/svg" xmlns:xlink="http://www.w3.org/1999/xlink" x="0px" y="0px"
	 viewBox="0 0 125.5 125.1" style="enable-background:new 0 0 125.5 125.1;" xml:space="preserve">
<style type="text/css">
	.st0{fill-rule:evenodd;clip-rule:evenodd;fill:#FFFFFF;}
</style>
<g id="Rectangle_18">
	<g>
		<path class="st0" d="M74.8,91.8c-1.2,1.2-2.4,2.4-3.6,3.6C63.6,90.8,55.7,85,48.3,77.6C40.8,70.2,35,62.3,30.5,54.7
			c1.2-1.2,2.4-2.4,3.5-3.5c-4.6-3.9-10-9.1-15.3-15.8C12.2,27,7.9,19,5.1,12.6c0,0-0.3,0.1-0.9,0.7C0.8,16.6,0.9,20,0.8,23.4
			c0,0-3,30.8,33.9,67.7c37.5,37.4,67.8,33.9,67.8,33.9c3.8-0.2,6.6,0.2,10.2-3.4c0.3-0.3,0.4-0.6,0.6-1c0.4-0.7,0.7-1.5,1.1-2.2
			c-6-2.4-13.2-5.9-20.8-11C85.7,102.1,79.4,96.5,74.8,91.8z M36.4,48.8l9.4-10.4c0.4-0.5,1.2-1.4,1.3-2.6c0.2-2.1-1.1-4.3-3.5-5.4
			c-3-2.1-6.6-5.2-10.2-9.5c-4-4.7-6.5-9.3-8.1-12.9c-0.1-0.5-0.4-1.7-1.3-2.6c-1.4-1.3-3.8-1.5-5.8-0.4l-10,5.6
			c2.8,6.2,6.9,13.9,13,21.9C26.4,39.3,31.7,44.7,36.4,48.8z M118,98.1c-3.6-1.4-8.3-3.8-13.2-7.5c-4.4-3.4-7.7-6.9-10-9.8
			c-1.3-2.3-3.5-3.6-5.6-3.2c-1.3,0.2-2.1,1-2.6,1.4l-9.9,9.9c4.3,4.4,9.9,9.5,17,14.4c8.3,5.7,16.1,9.5,22.4,12l5.1-10.2
			c1-2.1,0.7-4.4-0.6-5.8C119.7,98.4,118.6,98.1,118,98.1z M97.2,66.4c0.4-1.9,0.6-3.9,0.6-5.9c0-17.9-14.5-32.3-32.3-32.3
			c-2,0-4,0.2-5.9,0.6l0.8,4.5c1.7-0.3,3.4-0.5,5.1-0.5c15.3,0,27.7,12.4,27.7,27.7c0,1.7-0.2,3.4-0.5,5.1L97.2,66.4z M110.8,69
			c0.5-2.8,0.8-5.6,0.8-8.5c0-25.5-20.7-46.2-46.2-46.2c-2.9,0-5.7,0.3-8.5,0.8l0.9,4.5c2.5-0.5,5-0.7,7.7-0.7
			c23,0,41.6,18.6,41.6,41.6c0,2.6-0.3,5.2-0.7,7.7L110.8,69z M65.4,0.5c-3.8,0-7.5,0.4-11.1,1.1l0.9,4.5c3.3-0.6,6.7-1,10.2-1
			c30.6,0,55.4,24.8,55.4,55.4c0,3.5-0.4,6.9-1,10.2l4.5,0.9c0.7-3.6,1.1-7.3,1.1-11.1C125.5,27.3,98.6,0.5,65.4,0.5z"/>
	</g>
</g>
</svg>
