<svg id="LOGO" xmlns="http://www.w3.org/2000/svg" viewBox="0 0 340.8 210"><style>.st0{fill:none;stroke:#fff;stroke-miterlimit:10}.st1{fill:#fff}</style><text id="XMLID_647_" transform="translate(260.666 341.333)" class="st1" font-family="Impact" font-size="12"></text><g id="XMLID_1_"><path id="XMLID_44_" class="st1" d="M175.4 138.3c1.7.4 3.5.7 5.3 1 1.8.2 3.2.3 4 .3L190 118l6 1.5 5.7 17.5c.4 1.3.8 2.5 1.4 3.7.5 1.2 1.1 2.2 1.9 3.1.7.9 1.7 1.7 2.8 2.4 1.1.7 2.5 1.2 4.1 1.6 2.5.6 4.9.5 7.2-.4s4.2-2.6 5.6-5c-.9-3-2.2-6.4-4-10.3-1.8-3.9-3.6-8-5.4-12.3 3.7-1 7.2-2.8 10.4-5.5 1-.9 1.9-1.8 2.8-2.9.6.7 1.2 1.4 1.8 2 2.8 3.2 5.6 6.3 8.5 9.3 2.8 3 5.5 5.7 7.9 8.2l2.9 15.4c.7 3.8 2.1 6.1 4 7 2 .9 4.7.9 8.2.3 1.7-.3 3.4-.7 5.1-1.3 1.7-.6 3-1 3.7-1.4l-4.3-23.1c3.1-8.1 5.6-14.6 7.4-19.5 1.8-5 3.1-8.9 4-11.8.9-2.9 1.4-5 1.5-6.4.1-1.4.1-2.5-.1-3.4-.5-2.8-1.9-4.7-4-5.8-2.1-1.1-4.5-1.3-7.2-.8-1.5.3-3.1.8-4.7 1.5s-3 1.5-4.3 2.4c-.6 2.9-1 5.5-1.5 7.8-.4 2.2-.9 4.4-1.3 6.5-.4 2.1-.8 4.2-1.2 6.2-.4 2.1-1 4.4-1.6 7l-.7.1-13-17.3c-2.3-3-4.5-5-6.6-5.8-.6-.2-1.2-.4-1.8-.5-.7-1.4-1.5-2.8-2.5-4.2-4.2-5.6-11.4-9.8-21.8-12.3-3.8-.9-7.5-1.6-11-2.1-3.5-.4-6.6-.5-9.4-.2-1.6.2-3 .6-4.1 1.2-1.1.7-1.8 1.8-2.2 3.3L174 99.1c-2.4-2.2-4.8-4.6-7.3-7.1 3.1-2.3 5.6-5.4 7.5-9.1 1.9-3.7 2.5-8 1.8-12.7-1.1-7.6-4.7-13.2-10.7-16.8-6-3.6-14.3-4.6-24.8-3.1-3.9.6-7.5 1.4-10.9 2.3-3.4.9-6.3 2.1-8.8 3.4-1.4.8-2.5 1.7-3.3 2.7-.7 1-1 2.3-.8 3.9l2.2 14.8c-1.8-1.1-3.9-2.1-6.2-2.9-2.6-.9-5.2-1.4-8-1.6-2.7-.2-4.9-.2-6.4.1-1 1.1-2.3 2.8-4.1 5-1.8 2.2-3.8 4.7-5.9 7.5-2.2 2.8-4.5 5.8-7 8.9-1 1.2-1.9 2.4-2.8 3.6L67.1 82.2l37-26.9c1.6-1.2 2.8-2.3 3.5-3.4.7-1.1 1.1-2.2 1.1-3.4 0-1.2-.3-2.4-.8-3.6-.6-1.3-1.4-2.6-2.4-4s-2.2-2.7-3.5-4.1l-2.9-2.9-48.4 35.2c-2.7 2-4.2 4.3-4.7 7-.4 2.7.3 5.4 2.3 8.1l18.3 25.1c.6.8 1.3 1.5 2 2-.2.3-.4.6-.6.8-1.9 2.6-3.5 4.8-4.7 6.6-.8 1.3-1.6 2.4-2.2 3.3-.6.9-1.1 1.9-1.5 2.9-.8 2.3-.5 4.3.8 6.2 1.3 1.9 3.9 3.5 7.6 4.8 1.6.6 3 .9 4.2 1 1.2.1 2.4.2 3.6.2 1.3-2 2.7-4.1 4.1-6.2 1.4-2.1 2.8-4.2 4.1-6.2l19.8 6.8-.6 8.2c-.1 1.4 0 2.6.1 3.7s.5 2.1 1.1 2.9c.6.9 1.4 1.6 2.5 2.3 1.1.7 2.5 1.4 4.3 2 2.4.8 4.6 1.2 6.6 1.2s3.6-.4 4.8-1.1c.3-4.4.6-9.5.9-15.2.3-5.7.7-11.5 1-17.4.1-1 .1-2.1.2-3.1l.2 1.5c.3 2 .8 3.6 1.4 4.7.6 1.2 1.5 2 2.4 2.6 1 .6 2.2.9 3.5.9 1.4.1 2.9 0 4.7-.3 1.8-.3 3.5-.6 5.3-1.1 1.8-.5 3-.9 3.9-1.3l-3.3-22 6.1-.9 12 14c.9 1 1.7 2 2.7 2.9.9.9 1.9 1.6 2.9 2.1.8.4 1.6.7 2.6 1l-1.8 7.2c-.5 2-.6 3.6-.5 4.9.2 1.3.6 2.4 1.3 3.3.7.9 1.7 1.6 2.9 2.2 1.2.7 2.7 1.2 4.4 1.6zm22.5-52.2c.9.1 1.6.1 2.3.2.7.1 1.6.3 2.7.6 4 1 6.7 2.4 8.2 4.4 1.5 1.9 1.9 4.3 1.2 7.2-.7 2.9-2.1 4.8-4.1 5.9-2 1.1-4.4 1.2-7.3.5l-7.2-1.8 4.2-17zm-91.1 17c-.2 4.1-.5 8.3-.9 12.6L92.4 111c2.4-3.5 4.8-6.9 7.4-10.3 2.6-3.3 4.9-6.3 7-9.1l.7.2c-.2 3.5-.4 7.2-.7 11.3zm51-22.6c-1.5 1.7-3.6 2.8-6.5 3.3l-7.3 1.1-2.6-17.2c.8-.3 1.6-.5 2.2-.7.7-.2 1.6-.4 2.7-.5 4-.6 7.1-.3 9.2.9 2.1 1.2 3.4 3.3 3.8 6.2.5 2.8 0 5.2-1.5 6.9z"/><g id="XMLID_3_"><path id="XMLID_4_" class="st1" d="M31.7 43c-1.6.4-2.6 2-2.2 3.6l15 60.2c.4 1.6 2 2.6 3.6 2.2 1.6-.4 2.6-2 2.2-3.6l-15-60.2c-.4-1.6-2-2.6-3.6-2.2z"/><path id="XMLID_5_" class="st1" d="M29.5 46.7c.4 1.6 2.1 2.6 3.7 2.2l60.2-15c1.6-.4 2.6-2.1 2.2-3.7-.4-1.6-2.1-2.6-3.7-2.2L31.7 43c-1.6.4-2.6 2-2.2 3.7z"/></g><g id="XMLID_7_"><path id="XMLID_10_" class="st1" d="M305.7 148c1.6-.5 2.4-2.2 1.9-3.8l-20-58.8c-.5-1.6-2.2-2.4-3.8-1.9-1.6.5-2.4 2.2-1.9 3.8l20 58.8c.6 1.5 2.3 2.4 3.8 1.9z"/><path id="XMLID_8_" class="st1" d="M307.6 144.1c-.5-1.6-2.3-2.4-3.9-1.9l-58.7 20c-1.6.5-2.4 2.3-1.9 3.9s2.3 2.4 3.9 1.9l58.7-20c1.6-.6 2.4-2.3 1.9-3.9z"/></g><path id="XMLID_51_" class="st1" d="M325.8 192H0c0 16 12.7 17.7 13.9 17.9.1 0 .1.1.2.1h312.8s13.9 0 14-18h-15.1zM168 203h-35.2c-1.3 0-3.8-1.7-3.8-2.9v-3.8h39v6.7zm41-3.3c0 1-1.9 3.3-3.1 3.3H170v-6.7h39v3.4z"/><path id="XMLID_55_" class="st1" d="M169.2 187H325V15.3C325 6.5 318.3 0 309.5 0H28.9C20.1 0 12 6.5 12 15.3V187h157.2zm-.1-182.5c1.4 0 2.5 1.1 2.5 2.5s-1.1 2.5-2.5 2.5-2.5-1.1-2.5-2.5 1.1-2.5 2.5-2.5zm146.9 171c0 1.9-1.6 3.5-3.5 3.5h-288c-1.9 0-3.5-1.6-3.5-3.5v-158c0-1.9 1.6-3.5 3.5-3.5h288c1.9 0 3.5 1.6 3.5 3.5v158z"/></g></svg>