<svg xmlns="http://www.w3.org/2000/svg" viewBox="0 0 512 512" width="512" height="512"><path d="M385.838 42.607l-18.909-18.91a10.2 10.2 0 0 0-14.424 0l-41.534 41.534-.962-.962a10.2 10.2 0 0 0-14.424 0l-8.459 8.459-.719-.719c-5.912-5.914-13.773-9.169-22.134-9.169s-16.223 3.256-22.135 9.168l-58.208 58.208c-3.983 3.983-3.983 10.441 0 14.425 1.992 1.991 4.602 2.987 7.212 2.987s5.22-.996 7.212-2.987l58.208-58.208a10.833 10.833 0 0 1 7.712-3.194 10.84 10.84 0 0 1 7.712 3.194l.719.719-217.41 217.407a10.2 10.2 0 0 0-2.214 3.319L28.268 367.95a10.198 10.198 0 0 0 13.32 13.319l60.072-24.813a10.215 10.215 0 0 0 3.319-2.214l240.289-240.289c3.983-3.983 3.983-10.441 0-14.425l-.963-.963 41.533-41.534c3.983-3.982 3.983-10.44 0-14.424zM91.994 338.38l-35.498 14.662 14.662-35.498L302.796 85.907l20.836 20.836L91.994 338.38zM329.881 84.142l-4.486-4.486 34.321-34.321 4.486 4.486-34.321 34.321zM506.555 135.251a10.195 10.195 0 0 0-10.519.61L4.435 472.678A10.2 10.2 0 0 0 10.2 491.29h491.601c5.632 0 10.199-4.567 10.199-10.199V144.274a10.203 10.203 0 0 0-5.445-9.023zm-14.954 335.641h-46.093v-9.421c0-5.632-4.567-10.199-10.199-10.199s-10.199 4.567-10.199 10.199v9.421h-83.88v-9.421c0-5.632-4.567-10.199-10.199-10.199s-10.199 4.567-10.199 10.199v9.421h-83.88v-9.421c0-5.632-4.567-10.199-10.199-10.199s-10.199 4.567-10.199 10.199v9.421h-83.88v-9.421c0-5.632-4.567-10.199-10.199-10.199s-10.199 4.567-10.199 10.199v9.421H43.13L491.6 163.625v307.267z" fill="#FFF"/><path d="M440.064 260.857a10.2 10.2 0 0 0-10.521.61L218.319 406.186a10.197 10.197 0 1 0 5.764 18.612h211.225c5.632 0 10.199-4.567 10.199-10.199V269.881c0-3.785-2.095-7.258-5.443-9.024zM425.108 404.4H257.014l168.094-115.168V404.4zM473.242 197.733c-5.632 0-10.199 4.567-10.199 10.199v60.175c0 5.633 4.566 10.199 10.199 10.199 5.632 0 10.199-4.567 10.199-10.199v-60.175c0-5.632-4.567-10.199-10.199-10.199zM473.242 287.485c-5.632 0-10.199 4.567-10.199 10.199v8.159c0 5.633 4.566 10.199 10.199 10.199 5.632 0 10.199-4.567 10.199-10.199v-8.159c0-5.631-4.567-10.199-10.199-10.199z" fill="#FFF"/></svg>