<svg id="rem.team" xmlns="http://www.w3.org/2000/svg" viewBox="0 0 221 22.7"><style>.st0{fill:#f7941d}</style><g id="Rectangle_1_copy_xA0_Clipping_Path"><g id="XMLID_88_"><path id="XMLID_89_" class="st0" d="M29.3 4c0-1.3-.5-2.2-1.5-2.8-1-.6-2.5-.9-4.6-.9H7.3L0 22.7h8.3l6.3-19.3h3.2c1 0 1.7.2 2.2.5.4.3.6.8.6 1.3 0 .2 0 .4-.1.7 0 .2-.1.5-.2.7-.2.4-.3.8-.5 1.2-.2.3-.4.7-.6.9-.3.3-.6.5-1 .7-.4.2-.9.4-1.4.6-.6.2-1.1.4-1.5.7s-.6.7-.8 1.2c0 .2-.1.4-.1.5 0 .2-.1.4-.1.5 0 .3 0 .6.1.9.1.3.1.7.2 1.2l1.8 7.6h9.3L22.6 12c.8-.3 1.6-.7 2.2-1.1.7-.4 1.2-.8 1.7-1.2s.9-.9 1.3-1.5.7-1.2.9-1.9c.4-.8.6-1.6.6-2.3zm13.3-.6h10.9l1-3.2H35.3L28 22.7h19.2l1-3.2H37.4l2.1-6.7h9.4l1-3h-9.4l2.1-6.4zm49.9.7c0-.8-.2-1.4-.5-1.9s-.8-.9-1.4-1.2C90 .7 89.2.5 88.2.4c-1-.1-2.1-.2-3.4-.2H58.7l-7.3 22.5h8.3L66 3.4h3.2c.3 0 .5.1.7.2.2.1.3.2.5.4.1.2.2.5.2.8 0 .2-.1.5-.1.8 0 .3-.1.7-.3 1.1L65 22.5h8.4l6.3-19.3H82.8c.2 0 .5.1.7.2.2.1.3.2.5.4.1.2.2.5.2.8 0 .3-.1.6-.1.9 0 .3-.1.7-.3 1.1l-5.2 15.8H87l5-15.2c.2-.7.4-1.3.5-1.9-.1-.3 0-.8 0-1.2zm-.6 18.6h8.2l2.2-6.8h-8.2l-2.2 6.8zM131.4.2h-21l-1 3.2h6.3l-6.2 19.3h8.3l6.3-19.3h6.3l1-3.2zm10.1 3.2h10.9l1-3.2h-19.2l-7.3 22.5h19.2l1-3.2h-10.8l2.1-6.7h9.4l1-3h-9.4l2.1-6.4zM178.4 1c-1.1-.7-2.6-1-4.6-1h-8.2c-1.3 0-2.5.1-3.6.4-1.1.3-2.1.7-3 1.3-.9.6-1.7 1.4-2.4 2.4s-1.3 2.2-1.7 3.7l-4.8 14.9h8.4l3.2-9.7h7.7l-3.2 9.7h8.3l4.8-14.9c.4-1.4.7-2.5.7-3.5 0-1.5-.6-2.7-1.6-3.3zm-6.9 5.2c-.1.5-.3 1.1-.6 1.8l-.5 1.8h-7.7l.6-1.8c.3-.9.6-1.8.9-2.4.3-.7.7-1.2 1.2-1.6.5-.4 1-.6 1.5-.7.5-.1 1.1-.1 1.8-.1s1.3 0 1.8.1.9.3 1.1.7c.1.2.2.6.2.9-.1.4-.2.8-.3 1.3zm49-4c-.3-.5-.8-.9-1.4-1.2-.6-.3-1.4-.5-2.4-.6-1-.1-2.1-.2-3.4-.2h-26.2l-7.3 22.5h8.3l6.3-19.3h3.2c.3 0 .5.1.7.2.2.1.3.2.5.4.1.2.2.5.2.8 0 .2-.1.5-.1.8 0 .3-.1.7-.3 1.1l-5.2 15.8h8.4l6.3-19.3h3.2c.2 0 .5.1.7.2.2.1.3.2.5.4.1.2.2.5.2.8 0 .3-.1.6-.1.9 0 .3-.1.7-.3 1.1L207 22.7h8.4l5-15.2c.2-.7.4-1.3.5-1.9.1-.6.1-1.1.1-1.5 0-.8-.2-1.4-.5-1.9z"/></g></g></svg>