<?xml version="1.0" encoding="utf-8"?>
<!-- Generator: Adobe Illustrator 19.0.0, SVG Export Plug-In . SVG Version: 6.00 Build 0)  -->
<svg version="1.1" xmlns="http://www.w3.org/2000/svg" xmlns:xlink="http://www.w3.org/1999/xlink" x="0px" y="0px"
	 viewBox="0 0 245.5 147.8" style="enable-background:new 0 0 245.5 147.8;" xml:space="preserve">
<style type="text/css">
	.st0{fill-rule:evenodd;clip-rule:evenodd;fill:#FFFFFF;}
</style>
<g id="background">
	<rect width="245.5" height="147.8"/>
</g>
<g id="PHONE">
	<g id="Rectangle_18">
		<g>
			<path class="st0" d="M90.3,105.3c-1.2,1.2-2.4,2.4-3.6,3.6c-7.6-4.5-15.5-10.3-22.9-17.8C56.3,83.8,50.5,75.9,46,68.3
				c1.2-1.2,2.4-2.4,3.5-3.5c-4.6-3.9-10-9.1-15.3-15.8c-6.6-8.4-10.9-16.4-13.7-22.8c0,0-0.3,0.1-0.9,0.7
				c-3.4,3.4-3.3,6.7-3.4,10.2c0,0-3,30.8,33.9,67.7c37.5,37.4,67.8,33.9,67.8,33.9c3.8-0.2,6.6,0.2,10.2-3.4c0.3-0.3,0.4-0.6,0.6-1
				c0.4-0.7,0.7-1.5,1.1-2.2c-6-2.4-13.2-5.9-20.8-11C101.2,115.7,94.9,110.1,90.3,105.3z M51.9,62.3L61.3,52
				c0.4-0.5,1.2-1.4,1.3-2.6c0.2-2.1-1.1-4.3-3.5-5.4c-3-2.1-6.6-5.2-10.2-9.5c-4-4.7-6.5-9.3-8.1-12.9c-0.1-0.5-0.4-1.7-1.3-2.6
				c-1.4-1.3-3.8-1.5-5.8-0.4l-10,5.6c2.8,6.2,6.9,13.9,13,21.9C41.9,52.9,47.2,58.3,51.9,62.3z M133.5,111.7
				c-3.6-1.4-8.3-3.8-13.2-7.5c-4.4-3.4-7.7-6.9-10-9.8c-1.3-2.3-3.5-3.6-5.6-3.2c-1.3,0.2-2.1,1-2.6,1.4l-9.9,9.9
				c4.3,4.4,9.9,9.5,17,14.4c8.3,5.7,16.1,9.5,22.4,12l5.1-10.2c1-2.1,0.7-4.4-0.6-5.8C135.2,112,134.1,111.7,133.5,111.7z
				 M112.7,80c0.4-1.9,0.6-3.9,0.6-5.9c0-17.9-14.5-32.3-32.3-32.3c-2,0-4,0.2-5.9,0.6l0.8,4.5c1.7-0.3,3.4-0.5,5.1-0.5
				c15.3,0,27.7,12.4,27.7,27.7c0,1.7-0.2,3.4-0.5,5.1L112.7,80z M126.3,82.6c0.5-2.8,0.8-5.6,0.8-8.5c0-25.5-20.7-46.2-46.2-46.2
				c-2.9,0-5.7,0.3-8.5,0.8l0.9,4.5c2.5-0.5,5-0.7,7.7-0.7c23,0,41.6,18.6,41.6,41.6c0,2.6-0.3,5.2-0.7,7.7L126.3,82.6z M80.9,14
				c-3.8,0-7.5,0.4-11.1,1.1l0.9,4.5c3.3-0.6,6.7-1,10.2-1c30.6,0,55.4,24.8,55.4,55.4c0,3.5-0.4,6.9-1,10.2l4.5,0.9
				c0.7-3.6,1.1-7.3,1.1-11.1C141,40.9,114.1,14,80.9,14z"/>
		</g>
	</g>
</g>
</svg>
