<svg id="PHONE" xmlns="http://www.w3.org/2000/svg" viewBox="0 0 125.5 125.1"><style>.st0{fill-rule:evenodd;clip-rule:evenodd;fill:#fff}</style><path class="st0" d="M74.8 91.8l-3.6 3.6C63.6 90.8 55.7 85 48.3 77.6 40.8 70.2 35 62.3 30.5 54.7l3.5-3.5c-4.6-3.9-10-9.1-15.3-15.8C12.2 27 7.9 19 5.1 12.6c0 0-.3.1-.9.7C.8 16.6.9 20 .8 23.4c0 0-3 30.8 33.9 67.7 37.5 37.4 67.8 33.9 67.8 33.9 3.8-.2 6.6.2 10.2-3.4.3-.3.4-.6.6-1 .4-.7.7-1.5 1.1-2.2-6-2.4-13.2-5.9-20.8-11-7.9-5.3-14.2-10.9-18.8-15.6zm-38.4-43l9.4-10.4c.4-.5 1.2-1.4 1.3-2.6.2-2.1-1.1-4.3-3.5-5.4-3-2.1-6.6-5.2-10.2-9.5-4-4.7-6.5-9.3-8.1-12.9-.1-.5-.4-1.7-1.3-2.6-1.4-1.3-3.8-1.5-5.8-.4l-10 5.6c2.8 6.2 6.9 13.9 13 21.9 5.2 6.8 10.5 12.2 15.2 16.3zM118 98.1c-3.6-1.4-8.3-3.8-13.2-7.5-4.4-3.4-7.7-6.9-10-9.8-1.3-2.3-3.5-3.6-5.6-3.2-1.3.2-2.1 1-2.6 1.4l-9.9 9.9c4.3 4.4 9.9 9.5 17 14.4 8.3 5.7 16.1 9.5 22.4 12l5.1-10.2c1-2.1.7-4.4-.6-5.8-.9-.9-2-1.2-2.6-1.2zM97.2 66.4c.4-1.9.6-3.9.6-5.9 0-17.9-14.5-32.3-32.3-32.3-2 0-4 .2-5.9.6l.8 4.5c1.7-.3 3.4-.5 5.1-.5 15.3 0 27.7 12.4 27.7 27.7 0 1.7-.2 3.4-.5 5.1l4.5.8zm13.6 2.6c.5-2.8.8-5.6.8-8.5 0-25.5-20.7-46.2-46.2-46.2-2.9 0-5.7.3-8.5.8l.9 4.5c2.5-.5 5-.7 7.7-.7 23 0 41.6 18.6 41.6 41.6 0 2.6-.3 5.2-.7 7.7l4.4.8zM65.4.5c-3.8 0-7.5.4-11.1 1.1l.9 4.5c3.3-.6 6.7-1 10.2-1 30.6 0 55.4 24.8 55.4 55.4 0 3.5-.4 6.9-1 10.2l4.5.9c.7-3.6 1.1-7.3 1.1-11.1.1-33.2-26.8-60-60-60z" id="Rectangle_18"/></svg>