<svg id="LOGO" xmlns="http://www.w3.org/2000/svg" viewBox="0 0 172.9 115.7"><style>.st0,.st1{fill:none;stroke:#ce0000;stroke-miterlimit:10}.st1{stroke:#fff}.st2,.st3{fill-rule:evenodd;clip-rule:evenodd}.st2{stroke:#fff;stroke-miterlimit:10;fill:none}.st3{fill:#fff}</style><path class="st0" d="M133.9 89.5"/><circle cx="126.6" cy="91.4" r="6.9"/><path class="st3" d="M168.6 94.6h-4.3v6.7h4.3v11.2h4.3V94.6zM161.8 97.3v-2.7h-2.7v2.7h-2.7v-2.7h-2.6v2.7h-2.7v-2.7h-2.6v6.7h13.2M80.5 23.7C60.9 23.7 45 39.8 45 59.6c0 19.8 15.9 35.9 35.5 35.9S116 79.4 116 59.6c0-19.8-15.9-35.9-35.5-35.9zm-2.4 52.8l-.1.1-.2.2-.1.1h-.1l-.1.1v.1l-.3.3-.2.2c-.1.1-.2.3-.4.4l-.2.2-.3.3-.1.1c0 .1-.1.1-.1.2l-.2.2s-.1 0-.1.1l-.1.1-.1.1-.2.2v.1l-.6.6c-.1.1-.2.1-.2.2l-.2.2s-.1 0-.1.1v.1l-.1.1c-.1.1-.1.1-.1.2v.2c0 .1 0 .2-.1.2h-.1-.1l-.1.1-.1.1h-.1-.1l-.1.1-.1.1h-.1-.1l-.2.2-.1.1h-.1-.1-.1-.1-.1-.1-.1-.1v.1h-.1-.1-.1c-.1 0-.1.1-.2.1h-.1c0-.1-.1-.1-.1-.2-.1-.1-.3-.2-.3-.4v-.1-.1-.1-.1-.1-.1-.1-.1-.1-.1-.1-.1-.1-.1-.1-.1-.1-.1-.1-.1-.1-.1-.1-.1-.1-.1-.1-.1-.1h.1l.1-.1v-.1l.1-.1h.1v-.1h.1l.1-.1.1-.1.1-.1v-.1l.1-.1.1-.1.1-.1h.1v-.1c.1 0 .1-.1.2-.1h.4l.1-.1c.1 0 .1-.1.2-.1l.3-.3c.1 0 .1-.1.2-.1l.1-.1c.1-.1.2-.2.3-.2.1-.1.2-.3.3-.4.1 0 .1-.1.2-.1s.1-.1.2-.1l.1-.1.3-.3.9-.9c.1-.1.1-.2.2-.2l.1-.1.3-.3.3-.3.1-.1.1-.1v-.1h.2l.1.1v.1l.1.1.1.1s0 .1.1.1c0 0 0 .1.1.1.1.2.3.3.4.5.2 1.7.2 1.7.2 1.8zm14.7 6.1c0 .1 0 .1 0 0V84.3s-.1 0-.1.1v.1l-.1.1-.1.1-.1.1v.1h-.1c-.1.1-.3.1-.4.2h-.1c-.1 0-.2 0-.3.1-.1 0-.2.1-.3.1h-.3-.1-.1-.1-.1-.1-.1-.1-.1-.1-.1-.1-.1-.1-.1-.1v-.1h-.1v-.1s0-.1-.1-.1l-.2-.2c-.2-.2-.4-.3-.5-.5 0 0 0-.1-.1-.1l-.1-.1-.3-.3-.1-.1-.3-.3-.2-.2c-.1-.1-.2-.3-.3-.4l-.3-.3-.8-.8-.3-.3-.3-.3-.1-.1v-.1l-.2-.2-.3-.3h-.1l-.1-.1-.2-.2-.1-.1c-.1-.2-.3-.3-.4-.4-.1-.2-.3-.3-.4-.5-.1-.1-.3-.2-.4-.4-.1 0-.1-.1-.2-.1l-.1-.1c-.1 0-.1-.1-.2-.1l-.2-.2c-.1-.1-.2-.2-.2-.3l-.1-.1c-.1 0-.1-.1-.2-.1l-.8-.8c-.1-.1-.2-.1-.2-.2l-.3-.3h-.1l-.1-.1-.2-.2-.1-.1c-.1-.1-.2-.2-.2-.3l-.1-.1-.1-.1h-.1l-.1-.1c-.1 0-.1-.1-.2-.1L79 75l-.1-.1v-.1l-.2-.2s0-.1-.1-.1v-.1l-.1-.1c0-.1-.1-.1-.1-.2l-.2-.2-.3-.3-.1-.1-.1-.1-.1-.1-.3-.3-.1-.1c-.1-.1-.2-.2-.2-.3l-.1-.1c-.1 0-.1-.1-.2-.1v-.1h-.1s0-.1-.1-.1h-.2-.1H75.9h-.1-.1C74 71 73.4 71 72.9 71h-.6c-.1 0-.2-.1-.3-.1h-.3-.1-.1-.1H71.1 71h-.1-.1-.1-.1-.1-.1-.1-.1v-.1h-.1v-.1l-.1-.1-.1-.1v-.1l-.1-.1c0-.1-.1-.1-.1-.2l-.1-.1-.1-.1c-.4-.9-.4-.9-.5-1v-.1l-.1-.1-.1-.1-.1-.1h-.1v-.1h-.1v-.1-.1-.1-.1-.1-.1-.1c-.1-.2-.1-.4-.2-.6v-.3-.1-.1-.1-.5-.8-.1-.1-.1-.1-.1-.1-.1-.1-.1-.1-.1h.1l.2.2.2.2.2.2c.1 0 .1.1.2.1l.2.2.1.1h.1l.1.1.2.2c.1.1.2.2.4.3v.1s.1 0 .1.1l.1.1h.1l.1.1.2.2.1.1h.1l.1.1.2.2h.7c.1 0 .2-.1.3-.1H75.4l.1-.1c0-.1 0-.1.1-.2v-.1-.1-.1-.1-.2-.1-.1-.1-.1c0-.1 0-.2.1-.2 0-.1 0-.2.1-.3v-.1-.1-.2l.3-.9v-.2-.1-.2-.1l-.1-.1-.3-.3c-.1 0-.1-.1-.2-.1s-.1-.1-.2-.1c-.2-.3-.5-.5-.7-.8l-.1-.1-.3-.3-.1-.1c-.1 0-.1-.1-.2-.1l-.1-.1-.2-.2s-.1 0-.1-.1c-.1 0-.1-.1-.2-.1-.1-.1-.2-.1-.2-.2v-.1h2.1c.1 0 .2.1.3.1H77.8l.1.1v.1h.1l.1.1.1.1.3.3.1.1h.1v.1h.1v.2h.1v.1c0 .1.1.2.1.3V62.7c0 .1.1.2.1.3V64.2c0 .1.1.4 0 .5v.5c0 .2-.1.7 0 .9h.1l.3.3.1.1c.2.3.4.5.6.7.2.2.4.5.6.7.2.2.4.3.5.5l.5.5.3.3.6.6c.1.2.3.3.4.5.2.2.4.3.5.5.1.1.3.2.4.4l.1.1.3.3.1.1.1.1s0 .1.1.1.1.1.2.1l.1.1.4.4c.1.1.2.3.4.4l.5.5c.1.1.2.2.3.2.1 0 .1.1.2.1h.1l.1.1.2.2.2.2s.1 0 .1.1l.3.3.2.2.2.2.2.2.2.2.4.4.3.3.2.2c.1.1.3.3.4.5.1 0 .1.1.2.1l.3.3c.1.1.2.1.2.2.2.3.5.6.8.8.1.1.2.3.4.4l.2.2c.1.1.2.2.3.2l.1.1H92.7s.1 0 .1.1l.1.1v.4c0 .1.1.2.1.3V80.3c-.1 2-.2 2.2-.2 2.3zm1.3-19.7c0 .1 0 .1 0 0 0 .1-.1.1-.1.2s-.1.1-.1.2l-.1.1-.3.3v.1h-.1s-.1 0-.1.1l-.2.2s-.1 0-.1.1l-.9.9c-.1.1-.2.2-.3.2l-.3.3-.3.3-.1.1H91l-.1.1-.1.1-.3.3-.4.4-.5.5c-.1.1-.2.1-.2.2 0 0-.1 0-.1.1s-.1.1-.1.2v.1l-.1.1c-.1.1-.2.2-.4.3l-.3.3-.1.1-.1.1c-.1.1-.2.2-.3.4l-.1.1c-.1 0-.1.1-.2.1v.1s0 .1-.1.1l-.2.2V70.2h-.7c-.1 0-.2.1-.4.1h-.1-.1-.1-.1c-.1.1-.1.1-.3.1h-.1l-.1-.1c-.6-.6-1.1-1.2-1.7-1.7l-.4-.4s0-.1-.1-.1-.1-.1-.2-.1h-.1v-.1c0-.1.1-.2.1-.3v-.1-.1-.1-.1-.1-.1-.1-.1-.1-.1-.2-.3-.2-.2c0-.1.2-.2.3-.3l.1-.1c.2-.1.3-.3.5-.4l.7-.7.5-.5.1-.1.3-.3.1-.1.1-.1.1-.1.1-.1h.1s.1 0 .1-.1l.2-.2.7-.7.1-.1.1-.1c.2-.2.5-.4.6-.7l.6-.6.6-.6c.2-.2.4-.3.5-.5l.1-.1c0-.1.1-.1.1-.2l.1-.1.2-.2c.1 0 .1-.1.2-.1h.1l.1.1.1.1.2.2.1.1c.1.1.1.2.2.2.2.2.4.3.5.5l.2.2v.1l.1.1c.1 0 .1.1.2.1l.1.1.3.3.2.2c.2.2.4.4.5.6l.3.3c.1.1.2.3.3.4.4.5.5.6.5.7zm-.5-7.5c-2.8.4-11.5.6-13 .6h-.2c-1.6 0-10.3-.2-13-.6-3-.4-4.7-.9-4.2-1.1s4.8-.5 7.2-.6c1.6-.1 9.1 0 10.2 0h10.2c2.4.1 6.6.3 7.2.6s-1.3.6-4.4 1.1zm-7.5-3c-2.4-.1-4.6 0-5.4 0h-.4c-.9 0-3.1-.1-5.4 0-3.9.2-8.2 0-14.8 1.1 0-6.1 3.2-12 5.7-14.7s4.2-3.5 8.1-5.3c-.2 1.2-.2 2.2-.1 4.8.1 2.6 1.3 11.4 1.3 11.4s.1-10.6.1-14.3c0-3.7 3.2-4.1 3.2-4.1h1.7l.2 21.1h.4l.2-21.1h1.7s3.2.4 3.2 4.1c0 3.7.1 14.3.1 14.3s1.2-8.8 1.3-11.4c.1-2.6.1-3.6-.1-4.8 3.9 1.8 5.7 2.5 8.1 5.3s5.7 8.7 5.7 14.7c-6.5-1.1-10.8-.9-14.8-1.1z"/><path class="st3" d="M91.3 82.6s0-.1 0 0c0-.1 0-.1 0 0 0-.1 0-.1-.1-.1v-.1-.1l-.1-.1H91h-.1-.6-.1-.1l-.1.1v.1l-.1.1v.1h-.1v.6c0 .1 0 .3.1.4v.4l.1.1v.1c.1.1.2.1.3.2H91.2v-.1l.1-.1.1-.1V84v-.1-.1-.2c-.1-.8-.1-.9-.1-1z"/><path class="st3" d="M136.5 90.9v-.2c-.4-5.3-4.8-9.5-10.2-9.5-2 0-3.9.6-5.5 1.6-8 13.8-22.9 23-40 23-11.3 0-21.7-4.1-29.7-10.8l2.2-2.1c.8-.8.9-2.1.2-2.8L49.6 86c-.7-.7-2-.7-2.8.1l-2.2 2.1c-1.8-2.3-3.4-4.8-4.8-7.4l2.8-1.2c1-.5 1.5-1.6 1.1-2.5l-2.3-5.2c-.4-1-1.6-1.4-2.6-.9l-2.5 1.1c-.8-2.7-1.3-5.4-1.5-8.3h2.8c1.1 0 2-.8 2-1.9v-5.6c0-1-.9-1.9-2-1.9h-2.8c.3-2.8.9-5.5 1.6-8.1l2.5 1.1c1 .4 2.2 0 2.6-.9l2.3-5.2c.4-1-.1-2.1-1.1-2.5L40 37.6c1.4-2.6 3-5 4.8-7.2l2.1 2c.8.8 2 .8 2.7 0l3.9-4.1c.7-.7.7-2-.1-2.7l-2-1.9c2.1-1.8 4.5-3.4 6.9-4.7l1.1 2.5c.4 1 1.5 1.5 2.5 1.1l5.2-2.2c1-.4 1.4-1.5 1-2.6L67 15.3c2.8-.9 5.6-1.5 8.6-1.8v2.8c0 1.1.9 1.9 1.9 1.9l5.6-.1c1 0 1.9-.9 1.9-2v-2.8c23.7 2 42.3 21.9 42.3 46.2 0 6.5-1.3 12.6-3.7 18.2.9-.2 1.9-.3 2.9-.3 6.7 0 12.3 4.7 13.7 10.9 1.8.8 3.7 1.5 5.5 2.3v2.6V84c0-5.1-4.1-9.2-9.2-9.2h-1.3c1.4-5 2.2-10.2 2.2-15.6 0-3.7-.4-7.3-1-10.7-3.8-2.1-7.8-6.6-10.6-12.5-2.5-5.3-3.5-10.7-3.1-14.8C112.2 9.5 97.2 2.4 80.6 2.4c-2 0-4 .1-6 .3v-.1C74.4 1.5 73.4.8 72.3 1L64 2.5c-1.1.2-1.8 1.2-1.6 2.3l.1.5c-2.9 1-5.7 2.2-8.4 3.6l-.5-.7c-.6-.9-1.9-1.1-2.8-.5l-6.9 4.8c-.9.6-1.1 1.9-.5 2.8l.4.6c-2.5 2.1-4.8 4.4-6.9 7l-.2-.1c-.9-.6-2.2-.4-2.8.5l-4.8 6.9c-.6.9-.4 2.2.5 2.8l.5.3c-1.5 2.9-2.7 5.8-3.6 8.9l-.8-.1c-1.1-.2-2.1.6-2.3 1.7L22 52.1c-.2 1.1.6 2.1 1.7 2.3l.4.1c-.1 1.5-.2 3-.2 4.5v37.2c0 10.8 8.7 19.5 19.5 19.5H126c10.8 0 19.5-8.7 19.5-19.5v-1.7l-9-3.4c.1-.1.1-.2 0-.2zM145.5 93.1V94.5z"/><path class="st3" d="M80.5 53.6h-.1V56h.2v-2.4h-.1zM125.5 24c.5-.1 1-.1 1.5-.1 6.8 0 12.3 5.5 12.3 12.3 0 3.2-1.2 6.1-3.2 8.3l-1-.8c-5.2-4.6-8.7-11.1-9.5-18.4l-.1-1.3-.5.1"/></svg>